<svg width="16" height="16" viewBox="0 0 16 16" fill="none" xmlns="http://www.w3.org/2000/svg">
<path d="M1.16007 7.23988H7.23995V1.15985C7.23995 0.740426 7.58048 0.399902 8.00005 0.399902C8.41947 0.399902 8.76 0.740426 8.76 1.15985V7.23988H14.84C15.2595 7.23988 15.6 7.58041 15.6 7.99983C15.6 8.4194 15.2595 8.75992 14.84 8.75992H8.76V14.8398C8.76 15.2594 8.41947 15.5999 8.00005 15.5999C7.58048 15.5999 7.23995 15.2594 7.23995 14.8398V8.75992H1.16007C0.740499 8.75992 0.399976 8.4194 0.399976 7.99983C0.399976 7.58041 0.740499 7.23988 1.16007 7.23988Z" fill="white"/>
</svg>
