<svg aria-hidden="true" style="position:absolute;width:0;height:0;overflow:hidden" xmlns="http://www.w3.org/2000/svg">
<defs>
<symbol id="icon-trophy" viewBox="0 0 32 32"><path d="M31.062 2.31h-4.106c.015-.455.023-.912.023-1.372 0-.518-.42-.938-.937-.938H5.959c-.518 0-.938.42-.938.938 0 .46.008.917.023 1.372H.938C.42 2.31 0 2.73 0 3.248c0 4.201 1.098 8.164 3.091 11.16 1.97 2.962 4.595 4.66 7.43 4.826.643.699 1.322 1.27 2.03 1.705v4.167h-1.573c-1.901 0-3.448 1.547-3.448 3.448v1.573h-.067c-.518 0-.938.42-.938.937s.42.938.938.938h17.071c.518 0 .938-.42.938-.938s-.42-.937-.938-.937h-.067v-1.573c0-1.901-1.547-3.448-3.448-3.448h-1.573v-4.167c.708-.435 1.387-1.005 2.03-1.705 2.835-.165 5.46-1.864 7.431-4.826 1.993-2.996 3.091-6.959 3.091-11.16 0-.518-.42-.938-.938-.938zM4.652 13.368c-1.644-2.471-2.61-5.703-2.758-9.184h3.254c.338 4.279 1.343 8.234 2.912 11.373.25.5.511.972.783 1.417-1.559-.589-3.002-1.82-4.191-3.607zm22.696 0c-1.189 1.787-2.632 3.018-4.191 3.607.271-.445.533-.917.783-1.417 1.57-3.14 2.574-7.095 2.912-11.373h3.254c-.147 3.481-1.113 6.712-2.758 9.184z"/></symbol>
<symbol id="icon-triangle" viewBox="0 0 77 32"><path d="m38.4 0 33.256 28.8H5.145L38.4 0z"/></symbol>
<symbol id="icon-star" viewBox="0 0 32 32"><path d="m30.608 11.163-8.812-.833c-.556-.05-1.036-.404-1.263-.934l-3.156-7.651c-.505-1.263-2.298-1.263-2.803 0l-3.131 7.651c-.202.53-.707.884-1.263.934l-8.813.833c-1.313.126-1.843 1.768-.859 2.651l6.641 5.833c.429.379.606.934.48 1.49l-1.995 8.181c-.303 1.288 1.086 2.348 2.247 1.667l7.348-4.318c.48-.278 1.061-.278 1.54 0l7.348 4.318c1.162.681 2.55-.354 2.247-1.667l-1.97-8.181c-.126-.556.051-1.111.48-1.49l6.641-5.833c.96-.884.404-2.525-.909-2.651z"/></symbol>
<symbol id="icon-save" viewBox="0 0 32 32"><path d="M24.889 0H3.556C1.583 0 0 1.6 0 3.556v24.889c0 1.956 1.582 3.556 3.556 3.556h24.889c1.956 0 3.556-1.6 3.556-3.556V7.112L24.89.001zm3.555 28.444H3.555V3.555h19.858l5.031 5.031v19.858zM16 16c-2.951 0-5.333 2.382-5.333 5.333s2.382 5.333 5.333 5.333 5.333-2.382 5.333-5.333S18.951 16 16 16zM5.333 5.333h16v7.111h-16V5.333z"/></symbol>
<symbol id="icon-plus" viewBox="0 0 32 32"><path d="M2.32 14.48h12.16V2.32c0-.839.681-1.52 1.52-1.52s1.52.681 1.52 1.52v12.16h12.16c.839 0 1.52.681 1.52 1.52s-.681 1.52-1.52 1.52H17.52v12.16c0 .839-.681 1.52-1.52 1.52s-1.52-.681-1.52-1.52V17.52H2.32C1.481 17.52.8 16.839.8 16s.681-1.52 1.52-1.52z"/></symbol>
<symbol id="icon-logout" viewBox="0 0 41 32"><path d="M34.324 14.899H12.928c-1.02 0-1.847.827-1.847 1.847s.827 1.847 1.847 1.847h21.396l-2.388 2.388c-.721.721-.721 1.89 0 2.612s1.89.721 2.612 0l5.54-5.54c.043-.043.083-.087.122-.134.009-.011.017-.024.027-.035.028-.036.056-.072.081-.11.007-.011.013-.023.021-.034.025-.04.05-.08.072-.121.004-.008.008-.017.012-.025.023-.045.046-.091.065-.138.002-.006.004-.012.007-.018.02-.05.039-.1.054-.152.002-.007.003-.013.005-.02.015-.051.029-.102.039-.155.003-.016.004-.032.007-.048.008-.044.015-.087.02-.132.006-.061.009-.122.009-.184s-.003-.123-.009-.184c-.004-.045-.012-.089-.02-.133-.003-.015-.004-.031-.007-.046-.011-.053-.024-.105-.039-.156-.002-.006-.003-.012-.005-.018-.016-.052-.034-.103-.055-.153-.002-.005-.004-.011-.006-.017-.02-.048-.042-.094-.066-.139l-.012-.024c-.023-.042-.048-.082-.073-.122-.007-.011-.013-.022-.02-.033-.025-.038-.053-.074-.081-.11-.009-.012-.017-.024-.026-.035-.039-.047-.079-.091-.122-.134l-5.54-5.54c-.361-.361-.833-.541-1.306-.541s-.945.18-1.306.541c-.721.721-.721 1.89 0 2.612l2.388 2.388z"/><path d="M15.107 31.853c5.041 0 9.731-2.501 12.546-6.689.569-.846.344-1.994-.503-2.563s-1.994-.344-2.563.503c-2.128 3.166-5.672 5.056-9.48 5.056-6.293 0-11.413-5.12-11.413-11.413S8.814 5.334 15.107 5.334c3.798 0 7.336 1.882 9.465 5.033.571.845 1.719 1.067 2.564.496s1.067-1.719.496-2.564c-2.817-4.17-7.499-6.659-12.526-6.659-8.33 0-15.107 6.777-15.107 15.107s6.777 15.107 15.107 15.107z"/></symbol>
<symbol id="icon-fire" viewBox="0 0 21 32"><path d="M5.548 32C2.002 20.278 9.494 15.999 9.494 15.999c-.524 6.255 3.019 11.128 3.019 11.128 1.303-.395 3.79-2.238 3.79-2.238 0 2.238-1.312 7.109-1.312 7.109s4.594-3.564 6.04-9.483c1.444-5.919-2.751-11.861-2.751-11.861.253 4.189-1.16 8.31-3.928 11.458.138-.161.255-.338.344-.532.497-.998 1.296-3.591.828-9.596C14.866 3.555 7.253 0 7.253 0c.656 5.136-1.311 6.319-5.92 16.068C-3.276 25.815 5.548 32 5.548 32z"/></symbol>
<symbol id="icon-ellipse" viewBox="0 0 32 32"><path d="M32 16c0-8.837-7.163-16-16-16S0 7.163 0 16s7.163 16 16 16 16-7.163 16-16z"/></symbol>
<symbol id="icon-done" viewBox="0 0 45 32"><path fill="#24d40c" style="fill:var(--color5, #24d40c)" d="M14.255 25.313 3.564 15.283 0 18.626l14.255 13.373L44.8 3.342 41.236-.001 14.254 25.312z"/></symbol>
<symbol id="icon-clear" viewBox="0 0 32 32"><path fill="#db0837" style="fill:var(--color6, #db0837)" d="M32 3.223 28.777 0 16 12.777 3.223 0 0 3.223 12.777 16 0 28.777 3.223 32 16 19.223 28.777 32 32 28.777 19.223 16 32 3.223z"/><path fill="#c2273d" style="fill:var(--color7, #c2273d)" d="M32 3.223 28.777 0 16 12.777 3.223 0 0 3.223 12.777 16 0 28.777 3.223 32 16 19.223 28.777 32 32 28.777 19.223 16 32 3.223z"/><path fill="#a72535" style="fill:var(--color8, #a72535)" d="M32 3.223 28.777 0 16 12.777 3.223 0 0 3.223 12.777 16 0 28.777 3.223 32 16 19.223 28.777 32 32 28.777 19.223 16 32 3.223z"/></symbol>
<symbol id="icon-calendar" viewBox="0 0 27 32"><path fill="#00d7ff" style="fill:var(--color1, #00d7ff)" d="M9.143 14.4H6.095v3.2h3.048v-3.2zm6.095 0H12.19v3.2h3.048v-3.2zm6.095 0h-3.048v3.2h3.048v-3.2zm3.048-11.2h-1.524V0h-3.048v3.2H7.618V0H4.57v3.2H3.046C1.355 3.2.014 4.64.014 6.4l-.015 22.4c0 1.76 1.356 3.2 3.048 3.2H24.38c1.676 0 3.048-1.44 3.048-3.2V6.4c0-1.76-1.371-3.2-3.048-3.2zm0 25.6H3.048V11.2h21.333v17.6z"/></symbol>
</defs>
</svg>